<?xml version="1.0" encoding="iso-8859-1"?>
<!-- Generator: Adobe Illustrator 19.0.0, SVG Export Plug-In . SVG Version: 6.00 Build 0)  -->
<svg version="1.1" id="Capa_1" xmlns="http://www.w3.org/2000/svg" xmlns:xlink="http://www.w3.org/1999/xlink" x="0px" y="0px"
	 viewBox="0 0 512.009 512.009" style="enable-background:new 0 0 512.009 512.009;" xml:space="preserve">
<g>
	<rect x="450.951" style="fill:#F7AB48;" width="34.885" height="26.163"/>
	<rect x="302.692" y="52.327" style="fill:#F7AB48;" width="52.327" height="34.885"/>
	<rect x="32.337" y="17.442" style="fill:#F7AB48;" width="34.885" height="26.163"/>
</g>
<g>
	<polygon style="fill:#FFCB5A;" points="511.999,95.932 468.394,143.288 424.788,95.932 450.951,95.932 450.951,61.048 
		485.836,61.048 485.836,95.932 	"/>
	<polygon style="fill:#FFCB5A;" points="389.904,183.144 328.856,244.192 267.808,183.144 302.692,183.144 302.692,113.375 
		355.019,113.375 355.019,183.144 	"/>
	<polygon style="fill:#FFCB5A;" points="93.385,113.375 49.779,160.73 6.174,113.375 32.337,113.375 32.337,78.49 67.222,78.49 
		67.222,113.375 	"/>
</g>
<g>
	
		<rect x="127.033" y="409.924" transform="matrix(-0.7071 0.7071 -0.7071 -0.7071 723.3988 537.6477)" style="fill:#1042A1;" width="246.631" height="17.442"/>
	<path style="fill:#1042A1;" d="M202.399,409.893c-21.672,0-39.245-17.573-39.245-39.245c0-21.672,17.573-39.245,39.245-39.245
		s39.245,17.573,39.245,39.245C241.627,392.311,224.071,409.867,202.399,409.893z M202.399,348.845
		c-12.044,0-21.803,9.759-21.803,21.803s9.759,21.803,21.803,21.803s21.803-9.759,21.803-21.803S214.443,348.845,202.399,348.845z"
		/>
	<path style="fill:#1042A1;" d="M298.332,505.825c-21.672,0-39.245-17.573-39.245-39.245c0-21.672,17.573-39.245,39.245-39.245
		s39.245,17.573,39.245,39.245C337.559,488.244,320.004,505.799,298.332,505.825z M298.332,444.778
		c-12.044,0-21.803,9.759-21.803,21.803s9.759,21.803,21.803,21.803s21.803-9.759,21.803-21.803S310.376,444.778,298.332,444.778z"
		/>
</g>
<rect x="-17.305" y="257.268" transform="matrix(-0.7071 0.7071 -0.7071 -0.7071 295.3976 409.621)" style="fill:#62BEFF;" width="160.336" height="17.442"/>
<rect x="431.426" y="470.944" transform="matrix(-0.7071 0.7071 -0.7071 -0.7071 1138.8264 487.6136)" style="fill:#FFCB5A;" width="73.998" height="17.442"/>
<g>
	<path style="fill:#62BEFF;" d="M31.64,263.378c-15.777-0.026-28.544-12.829-28.518-28.605
		c0.026-15.777,12.829-28.544,28.605-28.518c15.742,0.026,28.492,12.776,28.518,28.518c0.009,15.794-12.794,28.597-28.588,28.605
		C31.657,263.378,31.648,263.378,31.64,263.378z M31.64,223.697c-6.14,0.026-11.102,5.023-11.076,11.163
		c0.026,6.14,5.023,11.102,11.163,11.076c6.14-0.026,11.102-5.023,11.076-11.163c-0.009-6.131-4.98-11.085-11.111-11.076
		C31.674,223.697,31.657,223.697,31.64,223.697z"/>
	<path style="fill:#62BEFF;" d="M93.996,325.734c-15.777-0.026-28.544-12.829-28.518-28.605
		c0.026-15.777,12.829-28.544,28.605-28.518c15.742,0.026,28.492,12.776,28.518,28.518c0.009,15.794-12.794,28.597-28.588,28.605
		C94.013,325.734,94.004,325.734,93.996,325.734z M93.996,286.053c-6.14,0.026-11.102,5.023-11.076,11.163
		c0.026,6.14,5.023,11.102,11.163,11.076c6.14-0.026,11.102-5.023,11.076-11.163c-0.009-6.131-4.98-11.085-11.111-11.076
		C94.031,286.053,94.013,286.053,93.996,286.053z"/>
	<path style="fill:#62BEFF;" d="M198.039,313.961c-2.311,0-4.535-0.916-6.166-2.555l-34.885-34.885l12.332-12.332l19.998,19.998
		v-83.601h17.442V305.24C206.76,310.054,202.861,313.961,198.039,313.961z"/>
	
		<rect x="190.796" y="279.108" transform="matrix(-0.7071 0.7071 -0.7071 -0.7071 571.3445 338.9991)" style="fill:#62BEFF;" width="49.335" height="17.442"/>
	<rect x="189.318" y="165.701" style="fill:#62BEFF;" width="17.442" height="17.442"/>
	<rect x="189.318" y="130.817" style="fill:#62BEFF;" width="17.442" height="17.442"/>
	<path style="fill:#62BEFF;" d="M468.394,383.73c-2.311,0-4.535-0.916-6.166-2.555l-34.884-34.885l12.332-12.332l19.998,19.998
		v-31.274h17.442v52.327C477.115,379.823,473.216,383.73,468.394,383.73z"/>
	
		<rect x="461.17" y="348.842" transform="matrix(-0.7071 0.7071 -0.7071 -0.7071 1082.2114 266.8593)" style="fill:#62BEFF;" width="49.335" height="17.442"/>
	<rect x="459.673" y="287.797" style="fill:#62BEFF;" width="17.442" height="17.442"/>
	<rect x="459.673" y="244.192" style="fill:#62BEFF;" width="17.442" height="26.163"/>
</g>
<rect x="302.692" y="8.721" style="fill:#F7AB48;" width="52.327" height="17.442"/>
<g>
	<rect x="433.509" y="453.499" style="fill:#FFCB5A;" width="17.442" height="17.442"/>
	<rect x="485.836" y="488.383" style="fill:#FFCB5A;" width="17.442" height="17.442"/>
</g>
<g>
</g>
<g>
</g>
<g>
</g>
<g>
</g>
<g>
</g>
<g>
</g>
<g>
</g>
<g>
</g>
<g>
</g>
<g>
</g>
<g>
</g>
<g>
</g>
<g>
</g>
<g>
</g>
<g>
</g>
</svg>
