<?xml version="1.0" encoding="iso-8859-1"?>
<!-- Generator: Adobe Illustrator 19.0.0, SVG Export Plug-In . SVG Version: 6.00 Build 0)  -->
<svg version="1.1" id="Capa_1" xmlns="http://www.w3.org/2000/svg" xmlns:xlink="http://www.w3.org/1999/xlink" x="0px" y="0px"
	 viewBox="0 0 512.004 512.004" style="enable-background:new 0 0 512.004 512.004;" xml:space="preserve">
<g>
	<path style="fill:#AFB6BB;" d="M77.339,196.709L23.799,333.537l47.59-35.69l37.032,7.327
		c14.813-38.788,31.894-72.589,50.476-102.135L77.339,196.709z"/>
	<path style="fill:#AFB6BB;" d="M315.295,434.666l-136.828,53.539l35.69-47.59l-7.327-37.032
		c38.788-14.813,72.589-31.894,102.135-50.476L315.295,434.666z"/>
</g>
<path style="fill:#EBBA16;" d="M135.345,386.361l-9.702-9.702c-24.514-18.511-60.601-7.742-73.454,20.524L0,512.004l114.82-52.189
	C143.087,446.963,153.865,410.875,135.345,386.361z"/>
<path style="fill:#E7ECED;" d="M511.621,0.384c0,0-285.555-23.799-410.483,303.404l41.975,41.975L166.25,368.9l41.975,41.975
	C535.411,285.939,511.621,0.384,511.621,0.384z"/>
<polygon style="fill:#AFB6BB;" points="247.173,264.832 187.683,264.832 113.029,398.976 247.173,317.797 "/>
<path style="fill:#DD352E;" d="M334.53,37.469l140.006,140.006c43.873-95.232,37.076-177.09,37.076-177.09
	S429.762-6.405,334.53,37.469z"/>
<circle style="fill:#366DB6;" cx="327.151" cy="184.81" r="67.302"/>
<path style="fill:#FFFFFF;" d="M327.195,227.27c-10.876,0-21.76-4.14-30.04-12.42c-16.561-16.561-16.561-43.511,0-60.072
	s43.52-16.561,60.072,0c3.452,3.452,3.452,9.031,0,12.482c-3.443,3.452-9.039,3.452-12.482,0c-9.684-9.684-25.432-9.675-35.107,0
	c-9.675,9.684-9.675,25.423,0,35.107c9.684,9.684,25.432,9.693,35.107,0c3.443-3.452,9.039-3.452,12.482,0
	c3.452,3.452,3.452,9.031,0,12.482C348.955,223.121,338.079,227.27,327.195,227.27z"/>
<g>
</g>
<g>
</g>
<g>
</g>
<g>
</g>
<g>
</g>
<g>
</g>
<g>
</g>
<g>
</g>
<g>
</g>
<g>
</g>
<g>
</g>
<g>
</g>
<g>
</g>
<g>
</g>
<g>
</g>
</svg>
