<?xml version="1.0" encoding="UTF-8" standalone="no"?><svg width="140px" height="42px" viewBox="0 0 140 42" version="1.1" xmlns="http://www.w3.org/2000/svg" xmlns:xlink="http://www.w3.org/1999/xlink" xmlns:sketch="http://www.bohemiancoding.com/sketch/ns">        <title>FinancialTimes</title>    <desc>Created with Sketch.</desc>    <defs></defs>    <g id="Homepage" stroke="none" stroke-width="1" fill="none" fill-rule="evenodd" sketch:type="MSPage">        <g id="Desktop-HD-1200-&lt;" sketch:type="MSArtboardGroup" transform="translate(-650.000000, -4288.000000)" fill="#6F8691">            <g id="8.-Press" sketch:type="MSLayerGroup" transform="translate(0.000000, 4150.000000)">                <g id="Financial-Times" transform="translate(540.000000, 100.000000)" sketch:type="MSShapeGroup">                    <path d="M115.263961,66.3458046 C115.263961,64.6981475 115.717562,64.5150745 117.635627,64.438794 L117.635627,63.8514348 L110,63.8514348 L110,64.438794 C111.586047,64.5150745 112.039648,64.6981475 112.039648,66.3458046 L112.039648,77.1166001 C112.039648,78.7718852 111.586047,78.9549582 110.042087,79.0236106 L110.042087,79.6262259 L123.523095,79.6262259 L123.614283,76.1478387 L122.951027,76.1478387 C122.381297,77.9099165 121.766363,78.4667635 118.609857,78.4667635 L116.164929,78.4667635 C115.430749,78.4667635 115.263961,78.3065746 115.263961,77.650563 L115.263961,72.6618235 L118.019084,72.6618235 C120.533377,72.6618235 121.078167,73.1042499 121.386023,74.751907 L122.004075,74.751907 L122.004075,69.1758082 L121.386023,69.1758082 C121.054006,71.0370505 120.103936,71.5023611 118.019084,71.5023611 L115.263961,71.5023611 L115.263961,66.3458046 L115.263961,66.3458046 Z M131.161839,66.3458046 C131.161839,64.6981475 131.609206,64.5150745 133.533505,64.438794 L133.533505,63.8514348 L125.559626,63.8514348 L125.559626,64.438794 C127.487043,64.5150745 127.931292,64.6981475 127.931292,66.3458046 L127.931292,77.1166001 C127.931292,78.7718852 127.487043,78.9549582 125.559626,79.0236106 L125.559626,79.6262259 L133.533505,79.6262259 L133.533505,79.0236106 C131.609206,78.9549582 131.161839,78.7718852 131.161839,77.1166001 L131.161839,66.3458046 L131.161839,66.3458046 Z M150.165563,76.6741736 C150.165563,78.2074101 149.736123,78.8329096 147.979391,79.0236106 L147.979391,79.6262259 L153.672792,79.6262259 L153.672792,79.0236106 C151.919178,78.8329096 151.492855,78.2074101 151.492855,76.6741736 L151.492855,63.4624046 L150.686192,63.4624046 L139.680508,75.9113694 L139.680508,66.788231 C139.680508,65.2549946 140.103714,64.6294951 141.860446,64.438794 L141.860446,63.8514348 L136.163927,63.8514348 L136.163927,64.438794 C137.920659,64.6294951 138.346982,65.2549946 138.346982,66.788231 L138.346982,77.4140937 C137.802192,78.3523429 137.1592,78.7947693 136.163927,79.0236106 L136.163927,79.6262259 L140.554198,79.6262259 L150.165563,68.7562659 L150.165563,76.6741736 L150.165563,76.6741736 Z M158.77542,69.503814 L161.195408,75.7511805 L163.594353,69.503814 L158.77542,69.503814 L158.77542,69.503814 Z M170.329011,63.8514348 L170.329011,64.438794 C169.120187,64.4159099 168.813109,64.9269887 168.195447,66.414457 L162.523089,80 L161.743705,80 L155.834414,65.9262623 C155.429914,64.9498729 154.884345,64.6523792 153.86491,64.438794 L153.86491,63.8514348 L158.988582,63.8514348 L158.988582,64.438794 C157.874063,64.438794 157.329273,64.6752633 157.329273,65.4380676 C157.329273,66.0864511 158.066571,67.8332728 158.252064,68.3443516 L164.09121,68.3443516 C164.279821,67.8332728 165.062323,66.0864511 165.062323,65.4380676 C165.062323,64.6752633 164.47155,64.438794 163.354692,64.438794 L163.354692,63.8514348 L170.329011,63.8514348 L170.329011,63.8514348 Z M185.965017,76.6741736 C185.965017,78.2074101 185.539473,78.8329096 183.785469,79.0236106 L183.785469,79.6262259 L189.478481,79.6262259 L189.478481,79.0236106 C187.721749,78.8329096 187.293087,78.2074101 187.293087,76.6741736 L187.293087,63.4624046 L186.488763,63.4624046 L175.479182,75.9113694 L175.479572,66.788231 C175.479572,65.2549946 175.905918,64.6294951 177.662627,64.438794 L177.662627,63.8514348 L171.966108,63.8514348 L171.966108,64.438794 C173.72284,64.6294951 174.152281,65.2549946 174.152281,66.788231 L174.152281,77.4140937 C173.604373,78.3523429 172.962161,78.7947693 171.966108,79.0236106 L171.966108,79.6262259 L176.356379,79.6262259 L185.964627,68.7562659 L185.965406,76.6741736 L185.965017,76.6741736 Z M206.335781,67.5586633 C204.649194,64.7439157 202.441978,63.4624046 199.096081,63.4624046 C193.853164,63.4624046 190.74498,66.8339993 190.74498,71.8761351 C190.74498,75.468943 193.640392,80 199.263649,80 C200.947119,80 203.339828,79.0693789 203.699124,79.0693789 C204.171431,79.0693789 204.314058,79.3211042 204.698295,80 L205.50184,80 L205.836196,74.7290229 L205.123839,74.7290229 C204.171431,77.1699964 202.491079,78.9320741 199.665811,78.9320741 C195.868651,78.9320741 194.210122,74.9120959 194.210122,71.8761351 C194.210122,67.6196876 196.082203,64.7667999 200.094472,64.7667999 C203.224479,64.7667999 204.95705,67.0399564 205.693568,68.0392299 L206.335781,67.5586633 L206.335781,67.5586633 Z M214.148328,66.3458046 C214.148328,64.6981475 214.60193,64.5150745 216.522332,64.438794 L216.522332,63.8514348 L208.549232,63.8514348 L208.549232,64.438794 C210.473532,64.5150745 210.924016,64.6981475 210.924016,66.3458046 L210.924016,77.1166001 C210.924016,78.7718852 210.473532,78.9549582 208.549232,79.0236106 L208.549232,79.6262259 L216.522332,79.6262259 L216.522332,79.0236106 C214.60193,78.9549582 214.148328,78.7718852 214.148328,77.1166001 L214.148328,66.3458046 L214.148328,66.3458046 Z M223.129172,69.503814 L225.54916,75.7511805 L227.945766,69.503814 L223.129172,69.503814 L223.129172,69.503814 Z M234.68588,63.8514348 L234.68588,64.438794 C233.473938,64.4159099 233.166861,64.9269887 232.551926,66.414457 L226.879568,80 L226.097846,80 L220.188555,65.9262623 C219.783276,64.9498729 219.238486,64.6523792 218.218272,64.438794 L218.218272,63.8514348 L223.341944,63.8514348 L223.341944,64.438794 C222.228204,64.438794 221.683414,64.6752633 221.683414,65.4380676 C221.683414,66.0864511 222.419932,67.8332728 222.608543,68.3443516 L228.444572,68.3443516 C228.633183,67.8332728 229.415685,66.0864511 229.415685,65.4380676 C229.415685,64.6752633 228.822573,64.438794 227.708054,64.438794 L227.708054,63.8514348 L234.68588,63.8514348 L234.68588,63.8514348 Z M236.095786,63.8514348 L236.095786,64.438794 C237.638967,64.5074464 238.089451,64.6981475 238.089451,66.3458046 L238.089451,77.1166001 C238.089451,78.7718852 237.638967,78.9549582 236.095786,79.0236106 L236.095786,79.6262259 L243.54514,79.6262259 L243.54514,79.0236106 C241.767365,78.9549582 241.313763,78.7718852 241.313763,77.1166001 L241.313763,66.0406829 C241.313763,65.0871776 241.599797,64.7667999 243.402513,64.7667999 C246.297925,64.7667999 248.005556,65.2778787 249.381948,68.0621141 L250,68.0621141 L248.909642,63.8514348 L236.095786,63.8514348 L236.095786,63.8514348 Z M145.00604,38.9687614 C146.838372,39.0450418 147.285739,39.2281148 147.285739,40.8757719 L147.285739,52.9967308 L145.295192,52.9967308 C143.419993,52.9967308 142.682696,52.2568108 142.162067,50.120959 L141.44971,50.120959 L141.83005,54.1561932 L155.968858,54.1561932 L156.349198,50.120959 L155.633723,50.120959 C155.116212,52.2568108 154.379694,52.9967308 152.507613,52.9967308 L150.513169,52.9967308 L150.513169,40.8757719 C150.513169,39.2281148 150.963653,39.0450418 152.787412,38.9687614 L152.787412,38.3814021 L145.00604,38.3814021 L145.00604,38.9687614 L145.00604,38.9687614 Z M163.607602,40.8757719 C163.607602,39.2281148 164.061204,39.0450418 165.982386,38.9763894 L165.982386,38.3814021 L158.008506,38.3814021 L158.008506,38.9763894 C159.935923,39.0450418 160.38329,39.2281148 160.38329,40.8757719 L160.38329,51.6541954 C160.38329,53.3018525 159.935923,53.4849255 158.008506,53.5535779 L158.008506,54.1638213 L165.982386,54.1638213 L165.982386,53.5535779 C164.061204,53.4849255 163.607602,53.3018525 163.607602,51.6541954 L163.607602,40.8757719 L163.607602,40.8757719 Z M182.918404,54.1561932 L188.471516,54.1561932 L188.471516,53.5535779 C186.928336,53.4849255 186.480969,53.3018525 186.480969,51.6541954 L186.480969,40.8757719 C186.480969,39.2281148 186.928336,39.0450418 188.471516,38.9687614 L188.471516,38.3814021 L181.210773,38.3814021 L181.210773,38.9687614 C182.799938,39.0450418 183.253539,39.2281148 183.253539,40.8757719 L183.253539,51.9745732 L183.204438,51.9745732 L177.818893,38.183073 L177.082375,38.183073 L171.818415,51.9745732 L171.770093,51.9745732 L171.770093,41.3181983 C171.770093,39.7849619 172.195637,39.1594624 173.952368,38.9687614 L173.952368,38.3814021 L168.259746,38.3814021 L168.259746,38.9687614 C170.013361,39.1594624 170.439684,39.7849619 170.439684,41.3181983 L170.439684,52.0432256 C170.439684,53.1340356 169.967377,53.5535779 168.259746,53.5535779 L168.259746,54.1561932 L174.119936,54.1561932 L178.412784,43.2023247 L182.918404,54.1561932 L182.918404,54.1561932 Z M190.761347,38.3814021 L190.761347,38.9687614 C192.30141,39.0450418 192.751894,39.2281148 192.751894,40.8757719 L192.751894,51.6541954 C192.751894,53.3018525 192.30141,53.4849255 190.761347,53.5535779 L190.761347,54.1561932 L204.235341,54.1561932 L204.330036,50.677806 L203.669118,50.677806 C203.09705,52.4398838 202.478998,52.9967308 199.32522,52.9967308 L196.88341,52.9967308 C196.143774,52.9967308 195.982442,52.836542 195.982442,52.1881584 L195.982442,47.1917908 L198.73133,47.1917908 C201.246013,47.1917908 201.790802,47.6342172 202.101776,49.2818743 L202.719049,49.2818743 L202.719049,43.7134036 L202.101776,43.7134036 C201.766641,45.5670178 200.819689,46.0323284 198.73133,46.0323284 L195.982442,46.0323284 L195.982442,40.5706502 C195.982442,39.624773 196.265358,39.2967672 199.112448,39.2967672 C202.004353,39.2967672 203.715102,39.807846 205.090715,42.5997094 L205.706428,42.5997094 L204.61607,38.3814021 L190.761737,38.3814021 L190.761347,38.3814021 Z M207.804141,43.3396295 L208.42531,43.3396295 C209.110365,41.2495459 211.153155,39.0679259 213.527938,39.0679259 C215.564469,39.0679259 216.301377,40.4562296 216.301377,41.6919724 C216.301377,45.3152924 207.950275,45.9865601 207.950275,50.487105 C207.949909,52.668725 210.10878,54.5299673 212.574751,54.5299673 C214.994739,54.5299673 215.847775,53.6985107 216.919428,53.6985107 C217.369912,53.6985107 217.653608,54.0417726 217.772075,54.5299673 L218.390126,54.5299673 L218.390126,49.5183436 L217.772075,49.5183436 C217.108039,51.7915002 215.44912,53.4620414 213.262948,53.4620414 C211.463349,53.4620414 210.793858,52.3254631 210.793858,51.2499092 C210.793858,48.0308754 219.148857,47.9317109 219.148857,42.3861242 C219.148077,39.9070105 217.062445,38 214.163526,38 C211.317215,38 210.583035,38.9687614 209.466178,38.9687614 C209.042972,38.9687614 208.75382,38.6941518 208.661853,38.183073 L207.803751,38.183073 L207.803774,43.3396295 L207.804141,43.3396295 Z" id="FinancialTimes" transform="translate(180.000000, 59.000000) scale(1, -1) translate(-180.000000, -59.000000) "></path>                </g>            </g>        </g>    </g></svg>