<?xml version="1.0" encoding="UTF-8" standalone="no"?><svg width="158px" height="32px" viewBox="0 0 158 32" version="1.1" xmlns="http://www.w3.org/2000/svg" xmlns:xlink="http://www.w3.org/1999/xlink" xmlns:sketch="http://www.bohemiancoding.com/sketch/ns">        <title>Wired</title>    <desc>Created with Sketch.</desc>    <defs></defs>    <g id="Homepage" stroke="none" stroke-width="1" fill="none" fill-rule="evenodd" sketch:type="MSPage">        <g id="Desktop-HD-1200-&lt;" sketch:type="MSArtboardGroup" transform="translate(-241.000000, -4292.000000)" fill="#6F8691">            <g id="8.-Press" sketch:type="MSLayerGroup" transform="translate(0.000000, 4150.000000)">                <g id="Wired" transform="translate(140.000000, 100.000000)" sketch:type="MSShapeGroup">                    <path d="M101,42 L132.619701,42 L132.619701,74 L101,74 L101,42 L101,42 Z M103.328628,47.022439 C104.739202,53.5278049 106.00399,60.0682927 107.363342,66.5853659 C107.611571,67.3658537 107.457905,68.3960976 108.222294,68.9190244 C109.601347,69.137561 111.01586,69.0829268 112.406733,68.9892683 C113.163242,69.0126829 113.344489,68.1307317 113.482394,67.564878 C114.43197,62.924878 115.464289,58.3004878 116.409925,53.6604878 C116.484788,53.2312195 116.618753,52.8136585 116.823641,52.4273171 C118.001746,57.4068293 118.974963,62.4292683 120.070324,67.4243902 C120.22005,67.955122 120.251571,68.6107317 120.779551,68.9346341 C122.284688,69.1141463 123.829227,69.1297561 125.330424,68.9229268 C125.870224,68.6068293 125.897805,67.955122 126.035711,67.4165854 C127.426584,60.622439 128.722893,53.8009756 130.192569,47.022439 C128.864738,47.0302439 127.540848,47.0263415 126.216958,47.0263415 C125.160998,52.9385366 124.313865,58.8897561 123.147581,64.782439 C121.835511,59.7834146 120.956858,54.6634146 119.814214,49.617561 C119.554165,48.755122 119.672369,47.4985366 118.718853,47.0614634 C117.552569,46.9912195 116.378404,46.9873171 115.21212,47.0614634 C114.550175,47.1160976 114.400449,47.8926829 114.270424,48.4078049 C113.214464,53.4107317 112.107282,58.4019512 111.074963,63.404878 C110.968579,63.8692683 110.810973,64.3141463 110.633666,64.755122 C109.573766,58.8585366 108.569027,52.9463415 107.654913,47.0263415 C106.212818,47.022439 104.770723,47.0302439 103.328628,47.022439 Z M163.94389,42 L195.563591,42 L195.563591,74 L163.94389,74 L163.94389,42 Z M171.087382,47.0263415 L171.087382,68.9736585 L175.468828,68.9736585 L175.468828,60.3882927 C177.844738,60.3960976 180.220648,60.3765854 182.596559,60.3921951 C183.463392,60.3102439 184.495711,60.9229268 184.47601,61.8673171 C184.586334,64.24 184.791222,66.604878 184.940948,68.9736585 C186.33182,68.9736585 187.718753,68.9736585 189.109626,68.977561 C188.715611,66.2926829 189.200249,63.5180488 188.43586,60.8878049 C188.041845,59.5102439 186.505187,59.2019512 185.307382,58.8585366 C186.197855,58.3902439 187.340499,58.3473171 187.986683,57.4887805 C188.924439,56.3102439 188.991421,54.737561 188.995362,53.3014634 C188.979601,51.6234146 189.019002,49.777561 187.943342,48.3687805 C187.084389,47.1980488 185.476808,47.0263415 184.129277,47.0263415 C179.783292,47.022439 175.433367,47.0263415 171.087382,47.0263415 Z M226.986284,42 L259,42 L259,74 L226.986284,74 L226.986284,42 Z M234.129776,47.0263415 L234.129776,68.9736585 C237.813815,68.9658537 241.493915,68.9892683 245.177955,68.9619512 C247.447481,68.9190244 250.091322,68.5014634 251.458554,66.4878049 C253.054314,63.9590244 252.813965,60.8643902 253.093716,58.0117073 C252.810025,55.155122 253.062195,52.0487805 251.458554,49.5121951 C250.185885,47.6273171 247.750873,47.1317073 245.611372,47.0536585 C241.785486,46.9912195 237.955661,47.0419512 234.129776,47.0263415 Z M140.641845,46.8117073 C145.736459,46.8 150.827132,46.8 155.917805,46.8117073 C155.937506,48.1190244 155.937506,49.4302439 155.921746,50.7414634 C154.121097,50.7531707 152.320449,50.7453659 150.5198,50.7453659 C150.527681,55.5804878 150.527681,60.4195122 150.5198,65.2546341 C152.320449,65.2546341 154.121097,65.2468293 155.925686,65.262439 C155.933566,66.5697561 155.937506,67.8809756 155.917805,69.1882927 C150.827132,69.2 145.736459,69.2 140.645786,69.1882927 C140.626085,67.8770732 140.626085,66.5697561 140.641845,65.2585366 C142.442494,65.2468293 144.243142,65.2546341 146.043791,65.2546341 C146.03591,60.4195122 146.03591,55.5804878 146.043791,50.7453659 C144.243142,50.7453659 142.442494,50.7531707 140.641845,50.7414634 C140.626085,49.4302439 140.626085,48.1229268 140.641845,46.8117073 Z M201.213766,46.8156098 C207.454963,46.7960976 213.69616,46.7960976 219.941297,46.8156098 C219.949177,49.2429268 219.941297,51.6702439 219.945237,54.097561 L215.890823,54.097561 C215.886883,52.977561 215.886883,51.8614634 215.894763,50.7453659 C213.45187,50.7492683 211.012918,50.7492683 208.570025,50.7453659 C208.562145,52.4234146 208.566085,54.1014634 208.566085,55.7795122 L214.476309,55.7795122 L214.476309,59.5141463 L208.566085,59.5141463 C208.573965,61.4302439 208.546384,63.3502439 208.585786,65.2663415 C211.091721,65.2390244 213.597656,65.2585366 216.103591,65.2546341 C216.099651,63.9785366 216.099651,62.702439 216.103591,61.4263415 C217.478703,61.4107317 218.853815,61.4107317 220.228928,61.422439 C220.228928,64.0097561 220.248628,66.5970732 220.217107,69.1843902 C213.881347,69.2039024 207.549526,69.2039024 201.213766,69.1843902 C201.194065,67.8770732 201.198005,66.5697561 201.209825,65.262439 C202.214564,65.2507317 203.215362,65.2507317 204.2201,65.2585366 C204.2398,60.4195122 204.2398,55.5804878 204.2201,50.7414634 C203.215362,50.7492683 202.210623,50.7492683 201.205885,50.7297561 C201.198005,49.4263415 201.198005,48.1190244 201.213766,46.8156098 Z M238.511222,50.6321951 C240.887132,50.6439024 243.263042,50.6165854 245.638953,50.64 C246.698853,50.6282927 247.908479,51.1395122 248.243392,52.2165854 C248.98808,54.3239024 248.672868,56.6107317 248.755611,58.8039024 C248.692569,60.5560976 248.877756,62.4058537 248.125187,64.0487805 C247.620848,65.1102439 246.316658,65.3912195 245.240998,65.3717073 C242.995112,65.3717073 240.753167,65.3639024 238.511222,65.3678049 L238.511222,50.6321951 Z M175.468828,50.6321951 C178.282095,50.675122 181.099302,50.5463415 183.904688,50.6907317 C184.988229,51.4517073 184.771521,52.9814634 184.814863,54.1326829 C184.759701,55.1785366 184.74,56.8526829 183.333367,56.9346341 C180.717107,57.0673171 178.089027,56.9541463 175.468828,56.9892683 L175.468828,50.6321951 Z"></path>                </g>            </g>        </g>    </g></svg>