<?xml version="1.0" encoding="UTF-8" standalone="no"?><svg width="94px" height="48px" viewBox="0 0 94 48" version="1.1" xmlns="http://www.w3.org/2000/svg" xmlns:xlink="http://www.w3.org/1999/xlink" xmlns:sketch="http://www.bohemiancoding.com/sketch/ns">        <title>Economist</title>    <desc>Created with Sketch.</desc>    <defs></defs>    <g id="Homepage" stroke="none" stroke-width="1" fill="none" fill-rule="evenodd" sketch:type="MSPage">        <g id="Desktop-HD-1200-&lt;" sketch:type="MSArtboardGroup" transform="translate(-1073.000000, -4284.000000)" fill="#6F8691">            <g id="8.-Press" sketch:type="MSLayerGroup" transform="translate(0.000000, 4150.000000)">                <g id="Economist" transform="translate(940.000000, 100.000000)" sketch:type="MSShapeGroup">                    <path d="M133,58.0000038 L133,34 L180,34 L227,34 L227,58.0000038 L227,82 L180,82 L133,82 L133,58.0000038 L133,58.0000038 Z M153.258654,68.4797665 C153.6945,68.3278628 154.281523,67.9460546 154.625722,67.5906066 L154.902996,67.3042636 L154.769939,66.9855508 L154.636879,66.6668379 L154.325552,66.9656705 C153.721754,67.5452241 152.912575,67.8042961 152.258689,67.6274094 C151.204134,67.3421314 150.63022,66.0374952 150.63022,63.925527 C150.63022,61.8081852 151.218278,60.8136031 152.474243,60.806728 C153.228355,60.8025999 153.563725,61.1457652 153.804028,62.1674038 C153.896759,62.5616338 153.929681,62.6079911 154.086934,62.5657582 C154.184806,62.5394732 154.349491,62.5174517 154.452891,62.5168233 C154.637271,62.5157056 154.640887,62.4965102 154.640887,61.5188995 L154.640887,60.522116 L154.035108,60.3806435 C153.103561,60.1630894 152.0282,60.1273365 151.38428,60.2925012 C149.625874,60.7435348 148.629516,62.2441515 148.626125,64.4465536 C148.623283,66.2917054 149.328357,67.6711099 150.592765,68.2940855 C151.411524,68.6974862 152.430343,68.7684463 153.258654,68.4797665 L153.258654,68.4797665 Z M161.740598,68.4815238 C162.371654,68.3054123 162.780234,68.0832635 163.226749,67.6735032 C164.277297,66.7094207 164.748154,65.1685957 164.475201,63.5880816 C164.109672,61.4715338 162.595156,60.1742168 160.489781,60.1742168 C158.076636,60.1742168 156.55941,61.8195234 156.5639,64.4314976 C156.567287,66.4014288 157.431066,67.8116303 158.998114,68.4055814 C159.81065,68.7135507 160.810017,68.7412243 161.740598,68.4815238 L161.740598,68.4815238 Z M159.946668,67.8324852 C159.069351,67.3054641 158.621336,65.9798676 158.61606,63.8954752 C158.612631,62.5426115 158.757493,61.8932757 159.176124,61.3849908 C160.001116,60.3833153 161.414057,60.8085117 162.051102,62.2501536 C162.380877,62.9964524 162.513669,63.7274204 162.517105,64.8153304 C162.522159,66.4169214 162.160951,67.4400125 161.447709,67.8443125 C160.990816,68.1033018 160.3896,68.0985641 159.946668,67.8324852 L159.946668,67.8324852 Z M182.256,68.5226127 C183.142266,68.331829 184.125581,67.617362 184.587433,66.8286234 C185.086163,65.9769098 185.310365,64.6943779 185.141999,63.6562608 C184.810713,61.6136234 183.425202,60.3111322 181.462219,60.1969758 C180.109803,60.1183277 179.072002,60.4803761 178.296002,61.3015448 C177.570555,62.0692254 177.204008,63.1359831 177.203571,64.4808352 C177.202628,67.4137087 179.366406,69.1446664 182.256,68.5226127 L182.256,68.5226127 Z M180.644532,67.862014 C179.748941,67.4065363 179.26128,65.9979792 179.256791,63.85366 C179.253561,62.3143477 179.498194,61.5449437 180.142756,61.0671209 C180.482367,60.8153605 181.180903,60.7814929 181.601771,60.9963865 C182.591001,61.5014615 183.144052,62.8433407 183.158494,64.7735189 C183.170033,66.3146375 182.84632,67.3335102 182.198476,67.7951932 C181.811884,68.0706948 181.113862,68.1007091 180.644532,67.862014 L180.644532,67.862014 Z M212.5423,68.4287017 C213.145378,68.2060486 213.800595,67.558169 213.992382,66.9948455 C214.150696,66.5298322 214.176215,65.7374434 214.044217,65.3852354 C213.80963,64.7592945 213.238949,64.2260116 211.605526,63.1063565 C211.249721,62.8624722 210.883121,62.5406811 210.790862,62.3912798 C210.590266,62.0664445 210.572519,61.5380761 210.753514,61.2794519 C211.021105,60.8971055 211.676319,60.6992059 212.203896,60.8413821 C212.591586,60.9458636 212.755906,61.1509883 212.964225,61.7905252 C213.060736,62.0868215 213.148442,62.2208017 213.242765,62.2160263 C213.318488,62.2121955 213.512042,62.2027879 213.672891,62.1951187 L213.965332,62.1811841 L213.965332,61.4345429 C213.965332,60.9074502 213.931071,60.6536126 213.84881,60.5712842 C213.78472,60.5071428 213.371072,60.3866193 212.929591,60.3034518 C210.564946,59.8579838 209.200826,60.7116014 209.20348,62.6351077 C209.204954,63.7050151 209.576829,64.2207622 211.09752,65.2619574 C212.38118,66.1408553 212.810959,66.7605646 212.531964,67.3303154 C212.324968,67.7530319 212.011433,67.9094098 211.370883,67.9094098 C210.863652,67.9094098 210.768249,67.883614 210.580516,67.6957316 C210.463095,67.5782111 210.27646,67.2583505 210.165784,66.9849299 C209.952807,66.4588043 209.792232,66.3637192 209.317904,66.4828691 C209.126265,66.5310063 209.119109,66.5609715 209.119109,67.3153948 C209.119109,67.8426342 209.15319,68.1243486 209.223551,68.1787739 C209.280996,68.2232081 209.5724,68.3268242 209.871109,68.4090321 C211.030306,68.7280536 211.717743,68.7331187 212.5423,68.4287017 L212.5423,68.4287017 Z M220.448365,68.3559352 C220.902322,68.1760833 220.944403,68.1374065 220.969246,67.877198 C220.992539,67.6332535 220.975352,67.6021555 220.844944,67.6522344 C220.761716,67.6841979 220.467549,67.7293772 220.191245,67.7526254 C219.547872,67.8067684 219.172537,67.6284819 218.936887,67.1567929 C218.782058,66.8468931 218.767788,66.6240217 218.742747,64.1254362 L218.715709,61.4285747 L219.630524,61.4285747 L220.545328,61.4285747 L220.593516,61.1874562 C220.620013,61.0548457 220.666393,60.8478734 220.696574,60.727523 L220.751444,60.508712 L219.739726,60.508712 L218.728,60.508712 L218.728,59.4216036 L218.728,58.3344952 L218.31757,58.3344952 L217.907132,58.3344952 L217.852149,58.6601622 C217.768903,59.1533346 217.363594,59.9449068 217.06602,60.1955045 C216.798424,60.4208557 216.337163,60.5910102 215.991551,60.5918682 C215.821719,60.5922897 215.803555,60.6327351 215.803555,61.0104529 L215.803555,61.4285747 L216.297085,61.4285747 L216.790615,61.4285747 L216.826324,64.1254362 C216.86492,67.039991 216.904825,67.3335855 217.339947,67.9045329 C217.457428,68.0586794 217.752002,68.2859723 217.994548,68.4096229 C218.402568,68.6176302 218.492353,68.6313428 219.19503,68.5930197 C219.715259,68.5646424 220.110082,68.4899568 220.448365,68.3559352 L220.448365,68.3559352 Z M145.957597,68.4852493 L146.256526,68.4357574 L146.403183,67.2945324 C146.483846,66.6668605 146.570227,66.0498268 146.595143,65.9233463 C146.639321,65.6990902 146.630854,65.6933816 146.253999,65.6933816 C145.885743,65.6933816 145.867555,65.7044864 145.867555,65.9293522 C145.867555,66.34811 145.61354,66.9333533 145.319728,67.1915335 C144.930683,67.5333967 144.564976,67.6157138 143.432813,67.6162557 C141.968109,67.6169594 142.071713,67.8068776 142.039751,65.0626278 L142.013724,62.8280062 L143.125972,62.8667244 C144.640968,62.91946 144.834608,63.032988 144.987688,63.9581905 C145.035067,64.2445523 145.062823,64.2717705 145.307341,64.2716764 L145.575112,64.2715786 L145.584128,62.4319586 L145.593141,60.5923348 L145.3215,60.5923348 C145.05399,60.5923348 145.048465,60.6002373 144.958471,61.1115627 C144.90715,61.4031551 144.79887,61.6990563 144.711489,61.78651 C144.431322,62.0669073 143.522221,62.1707454 142.462668,62.0433731 L142.024,61.9906413 L142.024,59.8698863 L142.024,57.7491277 L143.047557,57.755555 C143.610512,57.7590885 144.220666,57.8070977 144.403453,57.8622379 C144.819049,57.9876045 145.079675,58.3547593 145.158081,58.9253116 L145.216042,59.347061 L145.520909,59.3216189 L145.825779,59.2961655 L145.825779,58.0836266 L145.825779,56.8710839 L142.086837,56.8710839 L138.347895,56.8710839 L138.347724,57.0819135 C138.347571,57.2734912 138.393744,57.3015298 138.853316,57.3889383 C139.89462,57.5869922 139.851554,57.3586042 139.851554,62.6829288 C139.851554,67.5269544 139.847524,67.5705796 139.377692,67.8093725 C139.247693,67.8754406 138.962732,67.9555074 138.744443,67.9872978 C138.395976,68.038039 138.347556,68.0698256 138.347556,68.2478374 L138.347556,68.4505801 L140.958667,68.4739111 C142.394778,68.486747 144.039778,68.5056827 144.614221,68.5159935 C145.188667,68.5263081 145.793186,68.5124713 145.957597,68.4852493 L145.957597,68.4852493 Z M170.598722,68.3484317 C170.59653,68.169528 170.486568,68.0724334 170.140445,67.9437854 C169.637308,67.7567836 169.607525,67.5958185 169.602047,65.0340887 C169.596809,62.5839225 169.629285,62.3693224 170.086121,61.8351777 C170.435361,61.4268324 170.788835,61.2613252 171.311685,61.2613252 C172.479094,61.2613252 172.742534,62.0949158 172.668338,65.5541294 C172.622173,67.7063887 172.586111,67.8360225 171.99155,67.9868725 C171.749958,68.0481691 171.686223,68.1049011 171.686223,68.2586525 L171.686223,68.4529621 L173.780922,68.4529621 L175.875622,68.4529621 L175.848919,68.2668183 C175.827671,68.1186739 175.747493,68.0679629 175.456269,68.0184522 C174.949301,67.9322629 174.712041,67.7550263 174.648283,67.4148714 C174.618722,67.2571651 174.587063,66.024475 174.57793,64.6755663 C174.564138,62.6380053 174.537694,62.1521332 174.42166,61.8042152 C174.221937,61.2054098 173.850779,60.7444116 173.340675,60.4615909 C172.937844,60.2382454 172.825965,60.2160357 172.104,60.2160922 C171.124208,60.2161674 170.732044,60.3746753 170.012726,61.0613483 L169.513777,61.5376547 L169.512856,61.1277138 C169.512349,60.9022421 169.489514,60.5820993 169.462107,60.416276 L169.41228,60.1147792 L168.881684,60.2260944 C168.465313,60.3134427 166.812582,60.5082755 166.484891,60.5086405 C166.450423,60.5086781 166.422223,60.6027849 166.422223,60.7177691 C166.422223,60.8948025 166.461037,60.92683 166.675571,60.92683 C167.15237,60.92683 167.488085,61.1325606 167.585762,61.4846105 C167.71388,61.9463763 167.697216,67.1498538 167.566394,67.5309244 C167.450868,67.8674441 167.179114,68.0318638 166.735551,68.0336098 C166.457367,68.0347011 166.422223,68.0582918 166.422223,68.243905 L166.422223,68.4529621 L168.511109,68.4529621 C170.127199,68.4529621 170.59971,68.4293075 170.598722,68.3484317 L170.598722,68.3484317 Z M191.223145,68.2713566 C191.204059,68.1415684 191.09485,68.0559813 190.840373,67.9713875 C190.644537,67.9062865 190.437737,67.7716289 190.380815,67.6721523 C190.307171,67.5434404 190.269647,66.8123933 190.250689,65.1368994 C190.22503,62.8692269 190.230783,62.7668451 190.406902,62.3571112 C190.74764,61.5643988 191.380787,61.1799301 192.170838,61.2859808 C192.617488,61.3459377 192.883478,61.6131305 193.058168,62.1773119 C193.179988,62.570748 193.201774,63.0090624 193.201774,65.0662027 C193.201774,66.8412033 193.174032,67.5397714 193.098287,67.6721523 C193.041372,67.7716289 192.834572,67.9062865 192.638736,67.9713875 C192.384256,68.0559813 192.27505,68.1415684 192.255968,68.2713566 L192.229265,68.4529621 L194.156855,68.4529621 L196.084442,68.4529621 L196.084442,68.2476907 C196.084442,68.0800461 196.031835,68.0325411 195.79746,67.9885396 C195.208346,67.8779318 195.209944,67.8853789 195.182602,65.1285303 L195.15809,62.6576297 L195.378829,62.2060843 C195.659712,61.6315093 196.089972,61.3303059 196.702473,61.2794745 C197.30572,61.2294069 197.633099,61.4081186 197.867324,61.9153461 C198.040476,62.2903318 198.048,62.4167746 198.048,64.9527914 C198.048,67.4289039 198.037867,67.6101821 197.890306,67.7734578 C197.803574,67.8694273 197.606174,67.9716886 197.451638,68.0007018 C197.225838,68.0430928 197.170664,68.0926787 197.170664,68.2532111 L197.170664,68.4529621 L199.24797,68.4529621 L201.325272,68.4529621 L201.28724,68.2538621 C201.256788,68.094421 201.183554,68.0459489 200.919644,68.0105197 C200.457716,67.9485118 200.201322,67.7537054 200.099723,67.3875516 C200.048531,67.2030823 200.012292,66.0859672 200.012021,64.6841687 C200.011513,62.0758672 199.973895,61.7968584 199.527966,61.0940795 C199.368132,60.8421761 199.139272,60.6348311 198.835705,60.4668968 C198.426196,60.2403564 198.309297,60.216032 197.630223,60.216032 C196.973832,60.216032 196.816991,60.2461215 196.396638,60.4527025 C196.131761,60.5828707 195.695297,60.9027313 195.426708,61.1635043 L194.938375,61.637628 L194.641944,61.164938 C194.439874,60.8427104 194.216677,60.6164485 193.94076,60.4541362 C193.572577,60.2375454 193.46427,60.216032 192.742219,60.216032 C191.783686,60.216032 191.402106,60.3718906 190.64644,61.0720731 L190.152,61.5302113 L190.150853,60.998554 C190.150229,60.706145 190.12841,60.3874585 190.102368,60.2903638 C190.056376,60.1188621 190.039835,60.1170182 189.522166,60.2256165 C189.104084,60.3133261 187.451598,60.5082717 187.123109,60.5086405 C187.088642,60.5086781 187.060442,60.6027849 187.060442,60.7177691 C187.060442,60.8918749 187.100264,60.92683 187.298641,60.92683 C187.743133,60.92683 188.07378,61.0992048 188.197428,61.3953919 C188.370809,61.8106801 188.36653,67.1612483 188.192484,67.5781321 C188.059665,67.896273 187.803271,68.0348441 187.347446,68.0348441 C187.097015,68.0348441 187.060442,68.0614791 187.060442,68.243905 L187.060442,68.4529621 L189.155145,68.4529621 L191.249845,68.4529621 L191.223145,68.2713566 L191.223145,68.2713566 Z M207.248047,68.3206904 C207.220155,68.2479353 207.197328,68.1587468 207.197328,68.122501 C207.197328,68.0862551 207.023921,68.0370305 206.811973,68.0131199 C206.2228,67.9466604 206.097145,67.7684604 206.020347,66.8904468 C205.98489,66.4850216 205.953204,64.794626 205.949937,63.1340112 L205.944,60.1147152 L205.338219,60.220066 C205.005045,60.2780134 204.301316,60.3685189 203.774386,60.4211981 C203.247452,60.473881 202.802219,60.5311022 202.78498,60.5483559 C202.68687,60.6465456 202.886462,60.92683 203.054493,60.92683 C203.403473,60.92683 203.775206,61.1094516 203.893928,61.3392207 C204.049795,61.6408793 204.142994,64.8041917 204.043843,66.4275332 C203.960085,67.7987794 203.895819,67.9289514 203.261593,68.0118781 C202.898238,68.0593868 202.772651,68.1453917 202.770165,68.3484317 C202.769173,68.4295145 203.276897,68.4529621 205.033828,68.4529621 C207.064826,68.4529621 207.293528,68.4392985 207.248047,68.3206904 L207.248047,68.3206904 Z M205.450511,58.4558691 C206.286833,58.0230413 206.187193,56.725235 205.293719,56.4137284 C204.067072,55.9860635 203.268892,57.7426213 204.381389,58.4215086 C204.703787,58.6182417 205.111453,58.6313484 205.450511,58.4558691 L205.450511,58.4558691 Z M190.695109,54.1380067 C191.134217,54.0302927 191.683655,53.7065787 192.136611,53.2887203 C192.614574,52.8477906 192.683657,52.7108488 192.562434,52.4445856 L192.465442,52.2315283 L192.05967,52.611391 C191.069993,53.5378691 189.824715,53.6631341 189.0371,52.9154241 C188.558926,52.4614893 188.151804,51.3146196 188.148116,50.4111488 L188.146668,50.0557498 L190.452928,50.0557498 L192.759184,50.0557498 L192.698543,49.4514579 C192.622406,48.6926958 192.483114,48.2907326 192.104523,47.7372797 C191.537349,46.9081483 190.735917,46.5718619 189.49805,46.6435784 C187.943632,46.7336361 186.795666,47.8092521 186.434932,49.5136576 C186.277722,50.2564304 186.277632,50.9597587 186.434657,51.6263257 C186.601304,52.3337407 186.830845,52.759223 187.331887,53.2894278 C188.16011,54.1658647 189.353782,54.4670417 190.695109,54.1380067 L190.695109,54.1380067 Z M188.105443,49.0864593 C188.240939,48.2795375 188.415591,47.84359 188.729043,47.5298745 C189.018815,47.2398738 189.085472,47.2125464 189.503144,47.2125464 C189.837273,47.2125464 190.036519,47.2631409 190.244086,47.4006997 C190.565487,47.613693 190.946668,48.3187637 191.028877,48.8523025 L191.08181,49.1958892 L190.763128,49.2502919 C190.587852,49.2802195 189.905818,49.3291432 189.247502,49.3590181 L188.050559,49.413338 L188.105443,49.0864593 L188.105443,49.0864593 Z M174.610668,53.8815349 C174.610668,53.6717703 174.583152,53.6514611 174.297332,53.6503397 C173.865481,53.6486388 173.592426,53.4924753 173.420128,53.1486627 C173.286783,52.8825839 173.274026,52.4862164 173.273905,48.6061942 L173.273777,44.3552428 L174.213774,44.4147934 C174.730777,44.4475433 175.291882,44.5289008 175.460672,44.5955861 C175.823967,44.7391207 176.031109,45.1094591 176.031109,45.6154259 C176.031109,45.9514075 176.0369,45.9581886 176.323558,45.9581886 L176.616,45.9581886 L176.616,44.7931809 L176.616,43.6281771 L172.229332,43.6275675 L167.842664,43.6269616 L167.84207,44.2281152 C167.841747,44.5587495 167.817265,45.0858873 167.78767,45.3995313 L167.733861,45.9697901 L168.059819,45.9430836 C168.384747,45.9164637 168.38592,45.9150563 168.430724,45.4982591 C168.455446,45.2682944 168.520152,44.9999991 168.574507,44.9020427 C168.730863,44.6203095 169.228593,44.4781935 170.286668,44.4131715 L171.268442,44.352842 L171.268442,48.6718635 C171.268442,53.5138608 171.280947,53.405477 170.703956,53.5636763 C170.531891,53.61085 170.297109,53.6593372 170.182223,53.6714166 C170.029014,53.6875263 169.96682,53.7491089 169.948907,53.9024425 L169.924486,54.1114996 L172.267575,54.1114996 L174.610668,54.1114996 L174.610668,53.8815349 L174.610668,53.8815349 Z M180.62669,53.9212578 C180.626672,53.7763572 180.566312,53.7189328 180.373447,53.6803275 C180.234173,53.6524507 180.046173,53.5354232 179.95567,53.4202696 C179.801585,53.2242176 179.791109,53.073074 179.791109,51.0452744 C179.791109,49.279768 179.815004,48.8224162 179.920431,48.5698881 C180.181334,47.9449482 180.664776,47.6113637 181.309552,47.6113637 C182.088744,47.6113637 182.335359,47.9551424 182.475046,49.2360336 C182.583992,50.2350524 182.530424,52.9972144 182.395571,53.333768 C182.33017,53.4969947 182.211523,53.5847419 181.967224,53.6505843 C181.701697,53.722139 181.629332,53.7812454 181.629332,53.9265675 L181.629332,54.1114996 L183.509332,54.1114996 L185.389332,54.1114996 L185.389332,53.9233463 C185.389332,53.8000796 185.338907,53.735035 185.243109,53.7347264 C185.162691,53.7344705 184.961873,53.696727 184.79685,53.6508477 C184.299868,53.5126792 184.278466,53.3999716 184.225308,50.6411136 C184.179699,48.2739907 184.169874,48.1581598 183.98243,47.7772284 C183.7481,47.3010124 183.254325,46.8571775 182.810938,46.7242322 C182.632925,46.6708531 182.247239,46.6272128 181.953858,46.6272467 C181.325686,46.6273257 180.613737,46.9285441 180.104442,47.4097236 L179.791109,47.7057602 L179.791109,45.4924038 L179.791109,43.2790436 L179.603109,43.3202266 C179.067614,43.4375251 178.411009,43.5261867 177.680223,43.5798744 C177.172912,43.6171438 176.867145,43.6746773 176.867943,43.7327151 C176.870496,43.9182794 176.998448,44.0099928 177.326219,44.0611818 C177.732036,44.1245631 177.926747,44.3432198 177.994807,44.8119662 C178.022898,45.0054593 178.034358,46.9717441 178.020274,49.1814955 C177.991096,53.7594121 178.01745,53.585265 177.338382,53.6871876 C176.999076,53.7381132 176.804718,53.9018592 176.900241,54.0563293 C176.919003,54.0866747 177.765135,54.1114996 178.780534,54.1114996 L180.626713,54.1114996 L180.62669,53.9212578 L180.62669,53.9212578 Z"></path>                </g>            </g>        </g>    </g></svg>